<?xml version="1.0" encoding="UTF-8"?><svg xmlns="http://www.w3.org/2000/svg" viewBox="0 0 1123.81 236.69"><defs><style>.ab{fill:#311718;}</style></defs><g id="a"/><g id="b"/><g id="c"/><g id="d"/><g id="e"/><g id="f"/><g id="g"/><g id="h"/><g id="i"/><g id="j"/><g id="k"/><g id="l"/><g id="m"/><g id="n"/><g id="o"/><g id="p"/><g id="q"/><g id="r"/><g id="s"/><g id="t"/><g id="u"/><g id="v"/><g id="w"/><g id="x"/><g id="y"/><g id="a`"><path id="aa" class="ab" d="M179.15,29.97v61.6l-23.64,21.64,26.64,21.98v67.93l-31.3,29.97H0v-46.95H20.98V46.62H0V0H150.85l28.3,29.97Zm-54.94,63.27V46.62h-49.95v46.62h49.95Zm3.33,92.9v-51.28h-53.28v51.28h53.28ZM356.64,0l33.3,33.3V111.22l-29.64,29.64,18.65,45.29h23.98v46.95h-59.61l-37.63-90.24h-23.98v43.29h17.65v46.95h-91.91v-46.95h20.98V46.62h-20.98V0h149.18Zm-21.64,99.9V46.62h-53.28v53.28h53.28ZM597.73,33.3V199.8l-33.3,33.3h-106.56l-33.3-33.3V33.3L457.87,0h106.56l33.3,33.3Zm-58.27,149.51V50.28h-56.61V182.81h56.61Zm89.24-136.19h-9.32V0h80.25V46.62h-19.98l15.98,132.53L725.93,0h47.95l28.3,178.48,15.65-131.87h-16.65V0h74.26V46.62h-11.99l-25.64,186.48h-73.92l-19.31-116.88-21.31,116.88h-69.93l-24.64-186.48Zm261.4,139.52h20.98V46.95h-20.98V0h85.25l54.94,110.55V46.95h-12.65V0h74.92V46.95h-15.65V233.09h-41.96l-77.25-153.18v106.22h20.98v46.95h-88.58v-46.95Zm217.04,16.93c-9.37,0-16.76,7.71-16.76,16.81v.09c0,9.1,7.29,16.72,16.67,16.72s16.76-7.71,16.76-16.81v-.09c0-9.1-7.3-16.72-16.67-16.72Zm13.2,16.83c0,7.34-5.72,13.43-13.31,13.43s-13.22-6.01-13.22-13.35v-.08c0-7.34,5.72-13.43,13.31-13.43s13.22,6.01,13.22,13.35v.08Zm-5.68-2.9v-.08c0-1.53-.45-2.73-1.37-3.65-1.12-1.12-2.86-1.78-5.39-1.78h-7.42v15.96h4.44v-4.85h1.95l3.23,4.85h5.1l-3.82-5.55c1.99-.83,3.27-2.45,3.27-4.89Zm-4.43,.29c0,1.16-.87,1.87-2.4,1.87h-2.9v-3.85h2.86c1.49,0,2.45,.62,2.45,1.91v.08Z"/></g></svg>