<?xml version="1.0" encoding="UTF-8"?><svg xmlns="http://www.w3.org/2000/svg" viewBox="0 0 1083.46 310.94"><defs><style>.ab{fill:#311718;}</style></defs><g id="a"/><g id="b"/><g id="c"/><g id="d"/><g id="e"/><g id="f"/><g id="g"/><g id="h"/><g id="i"/><g id="j"/><g id="k"/><g id="l"/><g id="m"/><g id="n"/><g id="o"/><g id="p"/><g id="q"/><g id="r"/><g id="s"/><g id="t"/><g id="u"/><g id="v"/><g id="w"/><g id="x"><path id="y" class="ab" d="M1066.8,277.33c-9.37,0-16.76,7.71-16.76,16.81v.09c0,9.1,7.29,16.72,16.67,16.72s16.76-7.71,16.76-16.81v-.09c0-9.1-7.3-16.72-16.67-16.72Zm13.2,16.83c0,7.34-5.72,13.43-13.31,13.43s-13.22-6.01-13.22-13.35v-.08c0-7.34,5.72-13.43,13.31-13.43s13.22,6.01,13.22,13.35v.08Zm-5.68-2.9v-.08c0-1.53-.45-2.73-1.37-3.65-1.12-1.12-2.86-1.78-5.39-1.78h-7.42v15.96h4.44v-4.85h1.95l3.23,4.85h5.1l-3.82-5.55c1.99-.83,3.27-2.45,3.27-4.89Zm-4.43,.29c0,1.16-.87,1.87-2.4,1.87h-2.9v-3.85h2.86c1.49,0,2.45,.62,2.45,1.91v.08ZM0,255.24l19.98-6.66V105.39L0,110.05v-44.29c43.62-11.32,104.23-25.31,137.19-30.3l27.64,23.98v57.94l-23.31,28.3,27.97,16.98v68.93l-28.64,33.63c-29.3,8.33-109.55,31.97-140.86,42.62v-52.61Zm111.22-124.21v-44.62l-43.29,9.66v44.95l43.29-9.99Zm5.33,92.24v-51.28l-48.62,11.66v51.95l48.62-12.32Zm75.93-14.65l18.65-3.66V69.76l-18.65,3V28.14c44.62-9.66,108.56-18.31,142.19-20.65l32.3,29.97V108.39l-31.63,26.31,21.98,47.62,22.64-2.33v46.62l-60.27,6.99-37.63-84.91-20.65,3.66v44.95l20.31-2v44.29c-16.65,3.33-66.27,11.66-89.24,15.32v-46.29Zm117.88-108.56V52.78l-48.95,7.33v47.95l48.95-7.99Zm91.24,96.23V34.8L431.56,1.5c33.3-2,66.6-2,99.9,0l29.97,33.3V196.3l-29.97,33.3c-33.3-1-66.6-1-99.9,0l-29.97-33.3Zm104.89-14.98V50.11c-16.65-1.33-33.3-1.33-49.95,0V181.31c16.65-.33,33.3-.33,49.95,0Zm214.78,61.27l-19.31-104.56-23.98,99.56c-17.65-1.33-45.62-4.33-66.93-5.33l-18.98-182.48-13.65-1V3.16c24.31,.67,60.27,3.66,83.58,5.66V52.11l-17.32-1,10.99,132.2L693.96,13.49c12.32,1,25.64,2.66,37.29,4.66l27.31,177.15,20.65-125.54-18.31-3.33V22.48c22.98,2.33,58.27,8.99,72.26,12.65v44.95l-11.65-2-30.64,173.82c-22.31-3.33-47.95-6.99-69.6-9.32Zm258.07,49.62l-64.6-163.83v103.89l18.65,4.33v44.95c-27.31-5.99-57.94-14.32-82.58-18.98v-45.29l18.31,2.33V86.08l-18.31-3.33V38.79c15.65,2,74.59,16.65,88.24,20.31l54.61,139.86V117.71l-17.32-4.33v-43.62c18.65,4.33,54.28,14.99,73.59,20.98v41.62l-14.98-3.66v179.15c-14.32-4-41.29-12.65-55.61-15.65Z"/></g><g id="a`"/><g id="aa"/></svg>