<?xml version="1.0" encoding="UTF-8"?><svg xmlns="http://www.w3.org/2000/svg" viewBox="0 0 450.16 552.87"><defs><style>.ae{fill:#b10023;}.af{fill:#311718;}</style></defs><g id="a"/><g id="b"/><g id="c"/><g id="d"/><g id="e"/><g id="f"/><g id="g"/><g id="h"/><g id="i"/><g id="j"/><g id="k"/><g id="l"/><g id="m"/><g id="n"/><g id="o"/><g id="p"/><g id="q"/><g id="r"/><g id="s"/><g id="t"/><g id="u"/><g id="v"><g><path id="w" class="af" d="M404.6,530.73v4.71h5.78v14.63h5.4v-14.63h5.78v-4.71h-16.95Zm34.91,0l-4.65,7.47-4.58-7.47h-5.72v19.34h5.28v-11.3l4.9,7.66h.19l4.9-7.66v11.3h5.33v-19.34h-5.65Z"/><g id="x"><path id="y" class="af" d="M356.75,269.66l48.13-44.06V100.19l-57.62-61.01H40.19v98.92h43.11V414.09H40.19v99.6H347.26l63.72-61.01v-138.28l-54.23-44.74Zm-64.32,145.59h-101.98v-96.45h101.98v96.45Zm0-182.7h-101.98v-96.45h101.98v96.45Z"/><path id="a`" class="ae" d="M416.46,268.12l27.6-25.27V84.61L364.15,0H0V173.27H43.71v205.66H0v173.95H362.99l87.17-83.46v-173.49l-33.7-27.8Zm4.57,188.85l-69.73,66.76H30.14v-117.68h42.7V146.14H30.14V29.14H351.59l63.34,67.06V230.02l-42.87,39.24,48.97,40.4v147.31ZM200.5,144.63v79.37h82.39v-79.37h-82.39Zm64.81,63.3h-47.22v-47.22h47.22v47.22Zm-64.81,119.4v79.37h82.39v-79.37h-82.39Zm64.81,63.3h-47.22v-46.22h47.22v46.22Z"/></g></g></g><g id="aa"/><g id="ab"/><g id="ac"/><g id="ad"/></svg>