<?xml version="1.0" encoding="UTF-8"?><svg xmlns="http://www.w3.org/2000/svg" viewBox="0 0 468.04 570.27"><defs><style>.af{fill:#fff;}.ag{fill:#b10023;}.ah{fill:#311718;}</style></defs><g id="a"/><g id="b"/><g id="c"/><g id="d"/><g id="e"/><g id="f"/><g id="g"/><g id="h"/><g id="i"/><g id="j"/><g id="k"/><g id="l"/><g id="m"/><g id="n"/><g id="o"/><g id="p"/><g id="q"/><g id="r"/><g id="s"/><g id="t"/><g id="u"><g><path id="v" class="af" d="M417.29,550.64v4.71h5.78v14.63h5.4v-14.63h5.78v-4.71h-16.95Zm34.91,0l-4.65,7.47-4.58-7.47h-5.72v19.34h5.28v-11.3l4.9,7.66h.19l4.9-7.66v11.3h5.33v-19.34h-5.65Z"/><g id="w"><path id="x" class="af" d="M199.55,423.29h101.5v-96h-101.5v96Zm10-87.5h82v79h-82v-79Zm17.5,17h47v46h-47v-46Zm-27.5-111.34h101.5v-96h-101.5v96Zm10-87.5h82v79h-82v-79Zm17.5,16h47v47h-47v-47Zm153.26,108.04l42.66-39.06V105.74l-63.04-66.74H40v116.45h42.5V414.14H40v117.13H359.64l69.4-66.45v-146.62l-48.73-40.21Zm38.73,182.55l-63.42,60.72H50v-99.13h42.9V147.45H50V49H355.62l57.35,60.72v124.81l-47.9,43.85,53.97,44.53v137.63ZM372.43,10l79.54,84.21V251.7l-27.47,25.15,33.54,27.67v172.67l-86.76,83.07H10v-173.13H53.5V182.45H10V10H372.43m4.31-10H0V192.45H43.5v184.69H0v193.13H375.3l92.74-88.8v-181.65l-28.31-23.35,22.24-20.36V90.24L376.75,0h0Z"/><path id="y" class="ag" d="M424.5,276.86l27.47-25.15V94.21L372.43,10H10V182.45H53.5v204.69H10v173.13H371.28l86.76-83.07v-172.67l-33.54-27.67Zm4.54,187.96l-69.4,66.45H40v-117.13h42.5V155.45H40V39H359.93l63.04,66.74V238.94l-42.66,39.06,48.73,40.21v146.62ZM209.55,153.95v79h82v-79h-82Zm64.5,63h-47v-47h47v47Zm-64.5,118.84v79h82v-79h-82Zm64.5,63h-47v-46h47v46Z"/><path id="a`" class="ah" d="M365.07,278.39l47.9-43.85V109.72l-57.35-60.72H50v98.45h42.9V422.14H50v99.13H355.62l63.42-60.72v-137.63l-53.97-44.53Zm-64.02,144.9h-101.5v-96h101.5v96Zm0-181.84h-101.5v-96h101.5v96Z"/></g></g></g><g id="aa"/><g id="ab"/><g id="ac"/><g id="ad"/><g id="ae"/></svg>