<?xml version="1.0" encoding="UTF-8"?><svg xmlns="http://www.w3.org/2000/svg" viewBox="0 0 1098.63 322.33"><defs><style>.ac{fill:#fff;}.ad{fill:#311718;}</style></defs><g id="a"/><g id="b"/><g id="c"/><g id="d"/><g id="e"/><g id="f"/><g id="g"/><g id="h"/><g id="i"/><g id="j"/><g id="k"/><g id="l"/><g id="m"/><g id="n"/><g id="o"/><g id="p"/><g id="q"/><g id="r"/><g id="s"/><g id="t"/><g id="u"/><g id="v"/><g id="w"><g><path id="x" class="ac" d="M0,254.9l19.98-6.99V116.71L0,121.38v-55.61c32.63-9.99,107.22-26.97,145.19-33.3l31.63,27.64v61.94l-21.64,25.64,25.64,15.32v71.93l-30.3,37.63c-23.64,7.33-116.21,32.63-150.51,43.29v-60.94Zm145.52,9.32l25.31-31.63v-64.93l-29.3-17.31,25.31-30.3V63.77l-24.97-20.98c-32.97,5.66-107.56,22.31-131.87,29.97v37.29l19.98-4.66V254.57l-19.98,6.66v42.29c24.64-8.66,117.21-33.63,135.53-39.29ZM70.93,94.07l53.28-11.99v55.94l-53.28,12.65v-56.61Zm0,89.58l58.27-14.32v60.27l-58.27,14.98v-60.94Zm43.62-52.61v-37.96l-33.96,7.66v38.29l33.96-7.99Zm5,91.57v-41.62l-38.96,9.32v42.62l38.96-10.32Zm74.92-13.32l20.31-3.66V77.09l-20.31,3V26.81c30.97-6.99,120.54-18.98,148.85-20.98l35.3,32.3V113.38l-29.97,25.64,19.31,43.62,23.64-2v53.28c-14.98,1-50.95,6.66-68.26,8.32l-35.96-85.25-12.32,1.67v38.96l17.65-2v51.95c-25.31,4.33-70.93,12.65-98.23,17.65v-55.94Zm88.24,30.3v-34.3l-16.98,1.66v-55.94l27.97-3.66,35.96,84.91c14.65-1.67,34.63-5,51.95-6.66v-35.3l-19.65,1.33-25.31-54.61,31.97-26.97V42.79l-28.97-26.97c-19.98,1.66-110.22,12.65-135.2,18.65v34.96l20.31-3V212.62l-20.31,4v37.63c12.32-3,60.6-11.32,78.25-14.65Zm-16.98-178.82l57.94-8.32v56.61l-57.94,8.32V60.77Zm48.28,40.29V62.77l-38.63,5.33v38.63l38.63-5.66Zm90.25,97.9V37.46L436.89,1.5c34.63-2,73.26-2,107.89,0l32.63,35.96V198.96l-32.97,35.63c-30.63-1-72.59-1-107.22,0l-32.97-35.63Zm37.29,25.97c35.96-1,66.93-1,98.57,0l27.31-29.97V41.12l-27.31-29.64c-33.96-2-66.93-2-98.57,0l-27.31,29.64V195.3l27.31,29.64Zm17.65-175.15c18.98-1.67,43.29-1.67,63.27,0V186.98c-19.98-.33-43.29-.33-63.27,0V49.78Zm53.28,127.2V59.11c-13.99-1-29.97-1-43.29,0v117.88h43.29Zm218.78,71.93l-16.32-97.57-22.64,94.57c-20.98-1.67-50.28-5-73.92-6.66l-17.65-179.82-12.32-.33V2.83c27.31,.67,70.93,4.33,87.91,5.99V62.1l-13.99-.67,5.66,85.58L700.96,12.82c11.65,1,36.96,4.66,47.62,6.66l22.98,140.86,13.32-82.58-15.32-2V23.14c21.31,2.66,68.26,10.99,79.92,13.65v51.95l-12.32-2-31.3,172.49c-18.65-2.33-53.95-8.33-74.59-10.32Zm-121.54-197.8l17.65,179.82c12.65,1,44.29,4,57.94,5.33l27.31-111.55,6.66,.67,19.65,115.55c9.66,1.33,40.62,5.33,58.61,7.99l31.3-171.82,10.99,1.67V44.12c-11.99-3-45.95-8.66-60.94-10.66v35.3l15.98,2.33-19.98,123.21-6.66-.67-27.97-166.83-32.63-4.66-39.29,160.17-6.33-.67-9.66-128.54,14.32,.67V17.15c-9.66-1.33-50.61-4-68.26-4.66V50.78l11.32,.33Zm374.62,247.08l-52.61-136.53v71.26l17.32,5.33v53.28c-17.98-4.99-69.26-17.98-90.57-21.64v-53.94l18.31,3.66V93.74l-18.31-3.33V38.46c20.31,2.33,83.58,16.98,96.57,21.64l45.95,130.2V123.37l-16.98-5v-51.61c25.31,5.99,59.94,16.98,82.25,24.97v51.28l-14.65-4.66v179.15c-13.99-3.66-56.94-16.98-67.26-19.31Zm-44.95-18.65v-35.63l-16.98-4.99v-107.22l7.33,.67,62.6,158.84c7.66,2,41.29,11.65,49.62,14.32V128.04l14.65,4.66v-34.96c-18.65-6.99-43.96-14.65-62.6-19.65v33.96l16.32,4.99v106.22l-7.33-1-55.61-154.51c-10.66-4-59.27-15.32-78.92-18.32v33.97l18.31,3.33V229.6l-18.31-3.66v36.3c11.99,2.33,59.27,13.65,70.93,17.32Zm142.58,9.16c-9.37,0-16.76,7.71-16.76,16.81v.09c0,9.1,7.29,16.72,16.67,16.72s16.76-7.71,16.76-16.81v-.09c0-9.1-7.3-16.72-16.67-16.72Zm13.2,16.83c0,7.34-5.72,13.43-13.31,13.43s-13.22-6.01-13.22-13.35v-.08c0-7.34,5.72-13.43,13.31-13.43s13.22,6.01,13.22,13.35v.08Zm-5.68-2.9v-.08c0-1.53-.45-2.73-1.37-3.65-1.12-1.12-2.86-1.78-5.39-1.78h-7.42v15.96h4.44v-4.85h1.95l3.23,4.85h5.1l-3.82-5.55c1.99-.83,3.27-2.45,3.27-4.89Zm-4.43,.29c0,1.16-.87,1.87-2.4,1.87h-2.9v-3.85h2.86c1.49,0,2.45,.62,2.45,1.91v.08Z"/><path id="y" class="ad" d="M141.52,150.35l25.31-30.3V63.77l-24.97-20.98c-32.97,5.66-107.56,22.31-131.87,29.97v37.29l19.98-4.66V254.57l-19.98,6.66v42.29c24.64-8.66,117.21-33.63,135.53-39.29l25.31-31.63v-64.93l-29.3-17.31Zm-70.59-56.28l53.28-11.99v55.94l-53.28,12.65v-56.61Zm58.27,135.53l-58.27,14.98v-60.94l58.27-14.32v60.27Zm232.76-37.96l-25.31-54.61,31.97-26.97V42.79l-28.97-26.97c-19.98,1.66-110.22,12.65-135.2,18.65v34.96l20.31-3V212.62l-20.31,4v37.63c12.32-3,60.6-11.32,78.25-14.65v-34.3l-16.98,1.66v-55.94l27.97-3.66,35.96,84.91c14.65-1.67,34.63-5,51.95-6.66v-35.3l-19.65,1.33Zm-38.29-82.58l-57.94,8.32V60.77l57.94-8.32v56.61ZM540.12,11.49c-33.96-2-66.93-2-98.57,0l-27.31,29.64V195.3l27.31,29.64c35.96-1,66.93-1,98.57,0l27.31-29.97V41.12l-27.31-29.64Zm-17.65,175.49c-19.98-.33-43.29-.33-63.27,0V49.78c18.98-1.67,43.29-1.67,63.27,0V186.98Zm87.25-135.86l17.65,179.82c12.65,1,44.29,4,57.94,5.33l27.31-111.55,6.66,.67,19.65,115.55c9.66,1.33,40.62,5.33,58.61,7.99l31.3-171.82,10.99,1.67V44.12c-11.99-3-45.95-8.66-60.94-10.66v35.3l15.98,2.33-19.98,123.21-6.66-.67-27.97-166.83-32.63-4.66-39.29,160.17-6.33-.67-9.66-128.54,14.32,.67V17.15c-9.66-1.33-50.61-4-68.26-4.66V50.78l11.32,.33Zm329.67,228.43v-35.63l-16.98-4.99v-107.22l7.33,.67,62.6,158.84c7.66,2,41.29,11.65,49.62,14.32V128.04l14.65,4.66v-34.96c-18.65-6.99-43.96-14.65-62.6-19.65v33.96l16.32,4.99v106.22l-7.33-1-55.61-154.51c-10.66-4-59.27-15.32-78.92-18.32v33.97l18.31,3.33V229.6l-18.31-3.66v36.3c11.99,2.33,59.27,13.65,70.93,17.32Z"/></g></g><g id="a`"/><g id="aa"/><g id="ab"/></svg>