<?xml version="1.0" encoding="UTF-8"?><svg xmlns="http://www.w3.org/2000/svg" viewBox="0 0 1173.33 243.68"><defs><style>.ac{fill:#fff;}.ad{fill:#311718;}</style></defs><g id="a"/><g id="b"/><g id="c"/><g id="d"/><g id="e"/><g id="f"/><g id="g"/><g id="h"/><g id="i"/><g id="j"/><g id="k"/><g id="l"/><g id="m"/><g id="n"/><g id="o"/><g id="p"/><g id="q"/><g id="r"/><g id="s"/><g id="t"/><g id="u"/><g id="v"/><g id="w"/><g id="x"/><g id="y"><g><path id="a`" class="ac" d="M1156.66,210.07c-9.37,0-16.76,7.71-16.76,16.81v.09c0,9.1,7.29,16.72,16.67,16.72s16.76-7.71,16.76-16.81v-.09c0-9.1-7.3-16.72-16.67-16.72Zm13.2,16.83c0,7.34-5.72,13.43-13.31,13.43s-13.22-6.01-13.22-13.35v-.08c0-7.34,5.72-13.43,13.31-13.43s13.22,6.01,13.22,13.35v.08Zm-5.68-2.9v-.08c0-1.53-.45-2.73-1.37-3.65-1.12-1.12-2.86-1.78-5.39-1.78h-7.42v15.96h4.44v-4.85h1.95l3.23,4.85h5.1l-3.82-5.55c1.99-.83,3.27-2.45,3.27-4.89Zm-4.43,.29c0,1.16-.87,1.87-2.4,1.87h-2.9v-3.85h2.86c1.49,0,2.45,.62,2.45,1.91v.08ZM0,186.14H20.98V56.94H0V0H155.84l36.3,36.3V101.9l-14.98,14.99,17.98,17.98v71.93l-36.3,36.3H0v-56.94Zm154.18,47.62l30.97-30.97v-63.93l-21.98-21.98,18.98-18.98V40.29l-30.97-31.3H9.99V47.95H30.97V195.13H9.99v38.63H154.18ZM77.59,47.95h56.28v52.95h-56.28V47.95Zm0,87.91h59.27v59.27h-59.27v-59.27Zm46.29-43.96V56.94h-36.3v34.96h36.3Zm3,94.24v-41.29h-39.29v41.29h39.29Zm85.58,0h20.98V56.94h-20.98V0h159.17l36.3,36.3V113.22l-26.97,22.64,21.98,49.95,17.98,.33v56.94h-66.6l-36.96-90.24h-17.32v33.3h17.32v56.94h-104.89v-56.94Zm94.9,47.95v-38.96h-17.32v-51.28h34.3l37.96,90.24h48.62v-38.96h-15.32l-26.97-61.94,29.3-23.98V40.29l-31.3-31.3H222.44V47.95h20.98V195.13h-20.98v38.96h84.91Zm-17.32-186.14h59.61v57.61h-59.61V47.95Zm49.62,48.62V56.94h-39.63v39.63h39.63Zm285.38-60.27V206.79l-36.3,36.3h-113.88l-36.3-36.3V36.3L474.85,0h113.88l36.3,36.3Zm-146.18,196.8h105.89l30.3-30.3V40.29l-30.3-30.3h-105.89l-30.3,30.3V202.79l30.3,30.3Zm17.98-182.81h69.93V193.14h-69.93V50.28Zm59.94,132.86V60.27h-49.95v122.88h49.95Zm95.57-126.21h-10.66V0h93.9V56.94h-18.65l10.66,85.58L753.23,0h58.61l30.63,142.19,10.32-85.25h-19.98V0h82.58V56.94h-10.32l-25.64,186.14h-78.59l-22.98-103.89-19.98,103.89h-77.25l-28.3-186.14Zm7.99-8.99l28.3,186.14h60.6l24.97-118.21h7.33l27.97,118.21h61.27l25.64-186.14h8.99V8.99h-62.6V47.95h20.31l-16.32,128.2h-6.66L803.85,8.99h-42.29l-31.3,167.16h-6.66l-17.32-128.2h19.31V8.99h-73.92V47.95h8.66Zm265.06,138.19h20.98V56.94h-20.98V0h96.57l50.28,102.23V56.94h-15.32V0h83.25V56.94h-15.65V243.08h-49.95l-69.26-137.19v80.25h20.98v56.94h-100.9v-56.94Zm90.91,47.95v-38.96h-20.98V79.58h7.33l77.92,154.51h33.97V47.95h15.65V8.99h-63.27V47.95h14.32V127.54h-6.99l-59.27-118.54h-79.58V47.95h20.98V195.13h-20.98v38.96h80.92Z"/><path id="aa" class="ad" d="M163.17,116.88l18.98-18.98V40.29l-30.97-31.3H9.99V47.95H30.97V195.13H9.99v38.63H154.18l30.97-30.97v-63.93l-21.98-21.98ZM77.59,47.95h56.28v52.95h-56.28V47.95Zm59.27,147.18h-59.27v-59.27h59.27v59.27Zm258.74,0l-26.97-61.94,29.3-23.98V40.29l-31.3-31.3H222.44V47.95h20.98V195.13h-20.98v38.96h84.91v-38.96h-17.32v-51.28h34.3l37.96,90.24h48.62v-38.96h-15.32Zm-45.95-89.58h-59.61V47.95h59.61v57.61ZM584.74,9.99h-105.89l-30.3,30.3V202.79l30.3,30.3h105.89l30.3-30.3V40.29l-30.3-30.3Zm-17.98,183.15h-69.93V50.28h69.93V193.14Zm93.57-145.18l28.3,186.14h60.6l24.97-118.21h7.33l27.97,118.21h61.27l25.64-186.14h8.99V8.99h-62.6V47.95h20.31l-16.32,128.2h-6.66L803.85,8.99h-42.29l-31.3,167.16h-6.66l-17.32-128.2h19.31V8.99h-73.92V47.95h8.66Zm355.97,186.14v-38.96h-20.98V79.58h7.33l77.92,154.51h33.97V47.95h15.65V8.99h-63.27V47.95h14.32V127.54h-6.99l-59.27-118.54h-79.58V47.95h20.98V195.13h-20.98v38.96h80.92Z"/></g></g><g id="ab"/></svg>